<svg xmlns="http://www.w3.org/2000/svg" width="960" height="540" viewBox="0 0 960 540">
  <rect width="960" height="540" fill="#f7fbff"/>
  <rect x="42" y="26" width="876" height="80" rx="10" fill="#ffffff" stroke="#b9c8d8" stroke-width="3"/>
  <text x="68" y="68" font-family="Arial" font-size="30" font-weight="700" fill="#172033">paper title</text>
  <text x="68" y="96" font-family="Arial" font-size="17" fill="#44546a">reading group subtitle</text>
  <rect x="58" y="142" width="396" height="220" rx="12" fill="#ffffff" stroke="#1f4e79" stroke-width="4"/>
  <text x="84" y="180" font-family="Arial" font-size="22" font-weight="700" fill="#1f4e79">main claim</text>
  <path d="M82 208 C148 190, 254 250, 414 218" fill="none" stroke="#44546a" stroke-width="4" stroke-linecap="round"/>
  <path d="M82 258 C160 282, 280 238, 412 300" fill="none" stroke="#44546a" stroke-width="4" stroke-linecap="round"/>
  <rect x="506" y="142" width="396" height="220" rx="12" fill="#ffffff" stroke="#c56a00" stroke-width="4"/>
  <text x="532" y="180" font-family="Arial" font-size="22" font-weight="700" fill="#c56a00">method / figure</text>
  <circle cx="580" cy="265" r="34" fill="#eaf2fb" stroke="#1f4e79" stroke-width="4"/>
  <circle cx="704" cy="265" r="34" fill="#fff5e6" stroke="#c56a00" stroke-width="4"/>
  <circle cx="828" cy="265" r="34" fill="#eaf7ef" stroke="#2e7d32" stroke-width="4"/>
  <path d="M615 265 L666 265" stroke="#44546a" stroke-width="5" marker-end="url(#arrow)"/>
  <path d="M739 265 L790 265" stroke="#44546a" stroke-width="5" marker-end="url(#arrow)"/>
  <rect x="58" y="424" width="844" height="58" rx="10" fill="#fff5e6" stroke="#c56a00" stroke-width="3"/>
  <text x="82" y="462" font-family="Arial" font-size="21" font-weight="700" fill="#6b3f00">bottom question / decision callout</text>
  <defs>
    <marker id="arrow" viewBox="0 0 10 10" refX="8" refY="5" markerWidth="5" markerHeight="5" orient="auto-start-reverse">
      <path d="M 0 0 L 10 5 L 0 10 z" fill="#44546a"/>
    </marker>
  </defs>
</svg>
